<svg width="73" height="133" viewBox="0 0 73 133" fill="none" xmlns="http://www.w3.org/2000/svg">
<path d="M1 13.071L8.24187 6.66267C8.65547 6.29668 9.32605 6.29668 9.73965 6.66267L16.9815 13.071" stroke="#E3E1DE"/>
<path d="M1 8.07104L8.24187 1.66267C8.65547 1.29668 9.32605 1.29668 9.73965 1.66267L16.9815 8.07104" stroke="#E3E1DE"/>
<path d="M1.6 55.1701C1.536 55.0661 1.504 54.9781 1.504 54.9061C1.504 54.8021 1.556 54.7221 1.66 54.6661C1.708 54.6181 1.772 54.5941 1.852 54.5941C1.948 54.5941 2.036 54.6341 2.116 54.7141C2.588 55.3381 3.216 55.6501 4 55.6501C4.384 55.6501 4.716 55.5621 4.996 55.3861C5.284 55.2021 5.428 54.9381 5.428 54.5941C5.428 54.2581 5.296 54.0061 5.032 53.8381C4.768 53.6701 4.4 53.5261 3.928 53.4061C3.264 53.2381 2.744 53.0221 2.368 52.7581C1.992 52.4861 1.804 52.0901 1.804 51.5701C1.804 51.2421 1.896 50.9501 2.08 50.6941C2.264 50.4301 2.512 50.2261 2.824 50.0821C3.144 49.9381 3.504 49.8661 3.904 49.8661C4.248 49.8661 4.592 49.9341 4.936 50.0701C5.288 50.1981 5.588 50.4061 5.836 50.6941C5.908 50.7501 5.944 50.8301 5.944 50.9341C5.944 51.0301 5.904 51.1141 5.824 51.1861C5.768 51.2341 5.696 51.2581 5.608 51.2581C5.528 51.2581 5.456 51.2261 5.392 51.1621C5.2 50.9461 4.972 50.7821 4.708 50.6701C4.444 50.5581 4.16 50.5021 3.856 50.5021C3.48 50.5021 3.156 50.5901 2.884 50.7661C2.62 50.9421 2.488 51.2061 2.488 51.5581C2.504 51.8781 2.648 52.1221 2.92 52.2901C3.2 52.4581 3.608 52.6101 4.144 52.7461C4.56 52.8501 4.904 52.9661 5.176 53.0941C5.448 53.2221 5.668 53.4021 5.836 53.6341C6.012 53.8661 6.1 54.1741 6.1 54.5581C6.1 55.0781 5.892 55.4941 5.476 55.8061C5.06 56.1101 4.544 56.2621 3.928 56.2621C2.952 56.2621 2.176 55.8981 1.6 55.1701ZM10.225 49.8661C10.601 49.8661 10.949 49.9101 11.269 49.9981C11.597 50.0781 11.857 50.1901 12.049 50.3341C12.249 50.4781 12.349 50.6341 12.349 50.8021C12.349 50.8901 12.317 50.9701 12.253 51.0421C12.197 51.1141 12.125 51.1501 12.037 51.1501C11.957 51.1501 11.889 51.1341 11.833 51.1021C11.785 51.0701 11.729 51.0221 11.665 50.9581C11.561 50.8541 11.461 50.7781 11.365 50.7301C11.245 50.6741 11.085 50.6301 10.885 50.5981C10.693 50.5581 10.485 50.5381 10.261 50.5381C9.821 50.5381 9.417 50.6501 9.049 50.8741C8.689 51.0981 8.405 51.4021 8.197 51.7861C7.989 52.1701 7.885 52.5941 7.885 53.0581C7.885 53.5381 7.985 53.9701 8.185 54.3541C8.385 54.7381 8.661 55.0421 9.013 55.2661C9.373 55.4821 9.781 55.5901 10.237 55.5901C10.525 55.5901 10.753 55.5661 10.921 55.5181C11.097 55.4701 11.269 55.4021 11.437 55.3141C11.493 55.2821 11.589 55.2101 11.725 55.0981C11.789 55.0421 11.845 55.0021 11.893 54.9781C11.941 54.9461 11.993 54.9301 12.049 54.9301C12.145 54.9301 12.221 54.9621 12.277 55.0261C12.333 55.0821 12.361 55.1581 12.361 55.2541C12.361 55.3901 12.265 55.5381 12.073 55.6981C11.881 55.8501 11.617 55.9821 11.281 56.0941C10.945 56.2061 10.573 56.2621 10.165 56.2621C9.581 56.2621 9.061 56.1261 8.605 55.8541C8.149 55.5741 7.793 55.1901 7.537 54.7021C7.289 54.2141 7.165 53.6661 7.165 53.0581C7.165 52.4741 7.293 51.9421 7.549 51.4621C7.805 50.9741 8.165 50.5861 8.629 50.2981C9.093 50.0101 9.625 49.8661 10.225 49.8661ZM16.6051 49.8661C16.7651 49.8661 16.9091 49.8981 17.0371 49.9621C17.1651 50.0261 17.2291 50.1221 17.2291 50.2501C17.2291 50.3621 17.1971 50.4541 17.1331 50.5261C17.0691 50.5901 16.9931 50.6221 16.9051 50.6221C16.8651 50.6221 16.7851 50.6021 16.6651 50.5621C16.5531 50.5221 16.4451 50.5021 16.3411 50.5021C16.0451 50.5021 15.7491 50.6181 15.4531 50.8501C15.1651 51.0741 14.9251 51.3661 14.7331 51.7261C14.5491 52.0861 14.4571 52.4501 14.4571 52.8181V55.7821C14.4571 55.8861 14.4211 55.9741 14.3491 56.0461C14.2851 56.1101 14.2011 56.1421 14.0971 56.1421C13.9931 56.1421 13.9051 56.1101 13.8331 56.0461C13.7691 55.9741 13.7371 55.8861 13.7371 55.7821V50.4061C13.7371 50.3021 13.7691 50.2181 13.8331 50.1541C13.9051 50.0821 13.9931 50.0461 14.0971 50.0461C14.2011 50.0461 14.2851 50.0821 14.3491 50.1541C14.4211 50.2181 14.4571 50.3021 14.4571 50.4061V51.4621C14.6411 51.0061 14.9171 50.6301 15.2851 50.3341C15.6611 50.0301 16.1011 49.8741 16.6051 49.8661ZM23.7487 53.0701C23.7487 53.6701 23.6167 54.2141 23.3527 54.7021C23.0887 55.1901 22.7247 55.5741 22.2607 55.8541C21.7967 56.1261 21.2807 56.2621 20.7127 56.2621C20.1447 56.2621 19.6287 56.1261 19.1647 55.8541C18.7007 55.5741 18.3367 55.1901 18.0727 54.7021C17.8087 54.2141 17.6767 53.6701 17.6767 53.0701C17.6767 52.4701 17.8087 51.9261 18.0727 51.4381C18.3367 50.9501 18.7007 50.5661 19.1647 50.2861C19.6287 50.0061 20.1447 49.8661 20.7127 49.8661C21.2807 49.8661 21.7967 50.0061 22.2607 50.2861C22.7247 50.5661 23.0887 50.9501 23.3527 51.4381C23.6167 51.9261 23.7487 52.4701 23.7487 53.0701ZM23.0287 53.0701C23.0287 52.5901 22.9287 52.1581 22.7287 51.7741C22.5287 51.3901 22.2487 51.0901 21.8887 50.8741C21.5367 50.6501 21.1447 50.5381 20.7127 50.5381C20.2807 50.5381 19.8887 50.6501 19.5367 50.8741C19.1847 51.0901 18.9047 51.3901 18.6967 51.7741C18.4967 52.1581 18.3967 52.5901 18.3967 53.0701C18.3967 53.5421 18.4967 53.9701 18.6967 54.3541C18.9047 54.7381 19.1847 55.0421 19.5367 55.2661C19.8887 55.4821 20.2807 55.5901 20.7127 55.5901C21.1447 55.5901 21.5367 55.4821 21.8887 55.2661C22.2487 55.0501 22.5287 54.7501 22.7287 54.3661C22.9287 53.9821 23.0287 53.5501 23.0287 53.0701ZM26.0134 55.7821C26.0134 55.8861 25.9774 55.9741 25.9054 56.0461C25.8414 56.1101 25.7574 56.1421 25.6534 56.1421C25.5494 56.1421 25.4614 56.1101 25.3894 56.0461C25.3254 55.9741 25.2934 55.8861 25.2934 55.7821V47.6221C25.2934 47.5181 25.3254 47.4341 25.3894 47.3701C25.4614 47.2981 25.5494 47.2621 25.6534 47.2621C25.7574 47.2621 25.8414 47.2981 25.9054 47.3701C25.9774 47.4341 26.0134 47.5181 26.0134 47.6221V55.7821ZM28.7791 55.7821C28.7791 55.8861 28.7431 55.9741 28.6711 56.0461C28.6071 56.1101 28.5231 56.1421 28.4191 56.1421C28.3151 56.1421 28.2271 56.1101 28.1551 56.0461C28.0911 55.9741 28.0591 55.8861 28.0591 55.7821V47.6221C28.0591 47.5181 28.0911 47.4341 28.1551 47.3701C28.2271 47.2981 28.3151 47.2621 28.4191 47.2621C28.5231 47.2621 28.6071 47.2981 28.6711 47.3701C28.7431 47.4341 28.7791 47.5181 28.7791 47.6221V55.7821ZM4.084 62.9461C3.828 62.9461 3.628 63.0301 3.484 63.1981C3.348 63.3661 3.28 63.5981 3.28 63.8941V65.1301H4.624C4.712 65.1301 4.788 65.1621 4.852 65.2261C4.924 65.2901 4.96 65.3701 4.96 65.4661C4.96 65.5621 4.924 65.6421 4.852 65.7061C4.788 65.7701 4.712 65.8021 4.624 65.8021H3.28V70.7821C3.28 70.8861 3.244 70.9741 3.172 71.0461C3.108 71.1101 3.024 71.1421 2.92 71.1421C2.816 71.1421 2.728 71.1101 2.656 71.0461C2.592 70.9741 2.56 70.8861 2.56 70.7821V65.8021H1.684C1.588 65.8021 1.508 65.7701 1.444 65.7061C1.38 65.6341 1.348 65.5541 1.348 65.4661C1.348 65.3621 1.38 65.2821 1.444 65.2261C1.508 65.1621 1.588 65.1301 1.684 65.1301H2.56V63.8941C2.56 63.3901 2.704 63.0021 2.992 62.7301C3.288 62.4501 3.68 62.3101 4.168 62.3101C4.392 62.3101 4.6 62.3461 4.792 62.4181C4.984 62.4821 5.08 62.5901 5.08 62.7421C5.08 62.8381 5.048 62.9181 4.984 62.9821C4.92 63.0461 4.848 63.0781 4.768 63.0781C4.696 63.0781 4.608 63.0581 4.504 63.0181C4.328 62.9701 4.188 62.9461 4.084 62.9461ZM11.8425 68.0701C11.8425 68.6701 11.7105 69.2141 11.4465 69.7021C11.1825 70.1901 10.8185 70.5741 10.3545 70.8541C9.89047 71.1261 9.37447 71.2621 8.80647 71.2621C8.23847 71.2621 7.72247 71.1261 7.25847 70.8541C6.79447 70.5741 6.43047 70.1901 6.16647 69.7021C5.90247 69.2141 5.77047 68.6701 5.77047 68.0701C5.77047 67.4701 5.90247 66.9261 6.16647 66.4381C6.43047 65.9501 6.79447 65.5661 7.25847 65.2861C7.72247 65.0061 8.23847 64.8661 8.80647 64.8661C9.37447 64.8661 9.89047 65.0061 10.3545 65.2861C10.8185 65.5661 11.1825 65.9501 11.4465 66.4381C11.7105 66.9261 11.8425 67.4701 11.8425 68.0701ZM11.1225 68.0701C11.1225 67.5901 11.0225 67.1581 10.8225 66.7741C10.6225 66.3901 10.3425 66.0901 9.98247 65.8741C9.63047 65.6501 9.23847 65.5381 8.80647 65.5381C8.37447 65.5381 7.98247 65.6501 7.63047 65.8741C7.27847 66.0901 6.99847 66.3901 6.79047 66.7741C6.59047 67.1581 6.49047 67.5901 6.49047 68.0701C6.49047 68.5421 6.59047 68.9701 6.79047 69.3541C6.99847 69.7381 7.27847 70.0421 7.63047 70.2661C7.98247 70.4821 8.37447 70.5901 8.80647 70.5901C9.23847 70.5901 9.63047 70.4821 9.98247 70.2661C10.3425 70.0501 10.6225 69.7501 10.8225 69.3661C11.0225 68.9821 11.1225 68.5501 11.1225 68.0701ZM16.1832 64.8661C16.3432 64.8661 16.4872 64.8981 16.6152 64.9621C16.7432 65.0261 16.8072 65.1221 16.8072 65.2501C16.8072 65.3621 16.7752 65.4541 16.7112 65.5261C16.6472 65.5901 16.5712 65.6221 16.4832 65.6221C16.4432 65.6221 16.3632 65.6021 16.2432 65.5621C16.1312 65.5221 16.0232 65.5021 15.9192 65.5021C15.6232 65.5021 15.3272 65.6181 15.0312 65.8501C14.7432 66.0741 14.5032 66.3661 14.3112 66.7261C14.1272 67.0861 14.0352 67.4501 14.0352 67.8181V70.7821C14.0352 70.8861 13.9992 70.9741 13.9272 71.0461C13.8632 71.1101 13.7792 71.1421 13.6752 71.1421C13.5712 71.1421 13.4832 71.1101 13.4112 71.0461C13.3472 70.9741 13.3152 70.8861 13.3152 70.7821V65.4061C13.3152 65.3021 13.3472 65.2181 13.4112 65.1541C13.4832 65.0821 13.5712 65.0461 13.6752 65.0461C13.7792 65.0461 13.8632 65.0821 13.9272 65.1541C13.9992 65.2181 14.0352 65.3021 14.0352 65.4061V66.4621C14.2192 66.0061 14.4952 65.6301 14.8632 65.3341C15.2392 65.0301 15.6792 64.8741 16.1832 64.8661ZM25.8456 64.8901C25.9256 64.8901 26.0016 64.9181 26.0736 64.9741C26.1456 65.0301 26.1816 65.1021 26.1816 65.1901C26.1816 65.2621 26.1656 65.3301 26.1336 65.3941L23.7816 70.9141C23.7496 70.9781 23.7016 71.0341 23.6376 71.0821C23.5816 71.1221 23.5216 71.1421 23.4576 71.1421C23.3776 71.1501 23.3056 71.1341 23.2416 71.0941C23.1776 71.0541 23.1296 70.9941 23.0976 70.9141L20.7336 65.3941C20.7336 65.3781 20.7256 65.3541 20.7096 65.3221C20.7016 65.2901 20.6976 65.2581 20.6976 65.2261C20.6976 65.1301 20.7296 65.0501 20.7936 64.9861C20.8576 64.9141 20.9496 64.8781 21.0696 64.8781C21.1416 64.8781 21.2056 64.9021 21.2616 64.9501C21.3256 64.9901 21.3736 65.0461 21.4056 65.1181L23.4456 69.9781L25.4976 65.1181C25.5296 65.0461 25.5736 64.9901 25.6296 64.9501C25.6936 64.9021 25.7656 64.8821 25.8456 64.8901ZM28.2612 70.7821C28.2612 70.8861 28.2252 70.9741 28.1532 71.0461C28.0892 71.1101 28.0052 71.1421 27.9012 71.1421C27.7972 71.1421 27.7092 71.1101 27.6372 71.0461C27.5732 70.9741 27.5412 70.8861 27.5412 70.7821V65.2621C27.5412 65.1581 27.5732 65.0741 27.6372 65.0101C27.7092 64.9381 27.7972 64.9021 27.9012 64.9021C28.0052 64.9021 28.0892 64.9381 28.1532 65.0101C28.2252 65.0741 28.2612 65.1581 28.2612 65.2621V70.7821ZM27.9012 64.0981C27.7412 64.0981 27.6172 64.0621 27.5292 63.9901C27.4412 63.9101 27.3972 63.7981 27.3972 63.6541V63.5341C27.3972 63.3901 27.4412 63.2821 27.5292 63.2101C27.6252 63.1301 27.7532 63.0901 27.9132 63.0901C28.2332 63.0901 28.3932 63.2381 28.3932 63.5341V63.6541C28.3932 63.7981 28.3492 63.9101 28.2612 63.9901C28.1812 64.0621 28.0612 64.0981 27.9012 64.0981ZM35.3156 67.7221C35.3156 67.8181 35.2796 67.9021 35.2076 67.9741C35.1356 68.0381 35.0516 68.0701 34.9556 68.0701H30.4196C30.4196 68.5501 30.5156 68.9821 30.7076 69.3661C30.9076 69.7421 31.1876 70.0421 31.5476 70.2661C31.9156 70.4821 32.3476 70.5901 32.8436 70.5901C33.2276 70.5901 33.5716 70.5101 33.8756 70.3501C34.1796 70.1901 34.4236 69.9861 34.6076 69.7381C34.6956 69.6661 34.7796 69.6301 34.8596 69.6301C34.9396 69.6301 35.0116 69.6621 35.0756 69.7261C35.1396 69.7901 35.1716 69.8621 35.1716 69.9421C35.1716 70.0301 35.1316 70.1141 35.0516 70.1941C34.7956 70.5061 34.4716 70.7621 34.0796 70.9621C33.6956 71.1621 33.2876 71.2621 32.8556 71.2621C32.2396 71.2621 31.6956 71.1301 31.2236 70.8661C30.7516 70.6021 30.3836 70.2341 30.1196 69.7621C29.8556 69.2821 29.7236 68.7301 29.7236 68.1061C29.7236 67.4501 29.8516 66.8781 30.1076 66.3901C30.3716 65.8941 30.7196 65.5181 31.1516 65.2621C31.5836 64.9981 32.0436 64.8661 32.5316 64.8661C33.0116 64.8661 33.4596 64.9781 33.8756 65.2021C34.2996 65.4261 34.6436 65.7541 34.9076 66.1861C35.1716 66.6181 35.3076 67.1301 35.3156 67.7221ZM32.5316 65.5621C32.0676 65.5621 31.6356 65.7221 31.2356 66.0421C30.8436 66.3621 30.5916 66.8221 30.4796 67.4221H34.5716V67.3261C34.5316 66.9661 34.4116 66.6541 34.2116 66.3901C34.0116 66.1181 33.7596 65.9141 33.4556 65.7781C33.1596 65.6341 32.8516 65.5621 32.5316 65.5621ZM44.0836 64.8781C44.1876 64.8781 44.2716 64.9101 44.3356 64.9741C44.4076 65.0381 44.4436 65.1261 44.4436 65.2381C44.4436 65.2461 44.4316 65.2981 44.4076 65.3941L42.5596 70.9141C42.5196 70.9861 42.4676 71.0461 42.4036 71.0941C42.3396 71.1341 42.2716 71.1501 42.1996 71.1421C42.1276 71.1421 42.0636 71.1221 42.0076 71.0821C41.9516 71.0421 41.9076 70.9861 41.8756 70.9141L40.3036 67.2181L38.8996 70.9141C38.8676 70.9781 38.8196 71.0341 38.7556 71.0821C38.6996 71.1221 38.6396 71.1421 38.5756 71.1421C38.4956 71.1501 38.4196 71.1341 38.3476 71.0941C38.2836 71.0461 38.2396 70.9861 38.2156 70.9141L36.3196 65.3941C36.2956 65.3461 36.2836 65.2941 36.2836 65.2381C36.2836 65.1341 36.3196 65.0501 36.3916 64.9861C36.4636 64.9141 36.5516 64.8781 36.6556 64.8781C36.7276 64.8781 36.7916 64.9021 36.8476 64.9501C36.9116 64.9901 36.9556 65.0461 36.9796 65.1181L38.5756 69.9061L40.0036 66.3181C40.0596 66.1661 40.1716 66.0901 40.3396 66.0901C40.4996 66.0901 40.6116 66.1661 40.6756 66.3181L42.1756 69.8821L43.7476 65.1181C43.7956 64.9581 43.9076 64.8781 44.0836 64.8781ZM1.6 85.1701C1.536 85.0661 1.504 84.9781 1.504 84.9061C1.504 84.8021 1.556 84.7221 1.66 84.6661C1.708 84.6181 1.772 84.5941 1.852 84.5941C1.948 84.5941 2.036 84.6341 2.116 84.7141C2.588 85.3381 3.216 85.6501 4 85.6501C4.384 85.6501 4.716 85.5621 4.996 85.3861C5.284 85.2021 5.428 84.9381 5.428 84.5941C5.428 84.2581 5.296 84.0061 5.032 83.8381C4.768 83.6701 4.4 83.5261 3.928 83.4061C3.264 83.2381 2.744 83.0221 2.368 82.7581C1.992 82.4861 1.804 82.0901 1.804 81.5701C1.804 81.2421 1.896 80.9501 2.08 80.6941C2.264 80.4301 2.512 80.2261 2.824 80.0821C3.144 79.9381 3.504 79.8661 3.904 79.8661C4.248 79.8661 4.592 79.9341 4.936 80.0701C5.288 80.1981 5.588 80.4061 5.836 80.6941C5.908 80.7501 5.944 80.8301 5.944 80.9341C5.944 81.0301 5.904 81.1141 5.824 81.1861C5.768 81.2341 5.696 81.2581 5.608 81.2581C5.528 81.2581 5.456 81.2261 5.392 81.1621C5.2 80.9461 4.972 80.7821 4.708 80.6701C4.444 80.5581 4.16 80.5021 3.856 80.5021C3.48 80.5021 3.156 80.5901 2.884 80.7661C2.62 80.9421 2.488 81.2061 2.488 81.5581C2.504 81.8781 2.648 82.1221 2.92 82.2901C3.2 82.4581 3.608 82.6101 4.144 82.7461C4.56 82.8501 4.904 82.9661 5.176 83.0941C5.448 83.2221 5.668 83.4021 5.836 83.6341C6.012 83.8661 6.1 84.1741 6.1 84.5581C6.1 85.0781 5.892 85.4941 5.476 85.8061C5.06 86.1101 4.544 86.2621 3.928 86.2621C2.952 86.2621 2.176 85.8981 1.6 85.1701ZM12.757 82.7221C12.757 82.8181 12.721 82.9021 12.649 82.9741C12.577 83.0381 12.493 83.0701 12.397 83.0701H7.861C7.861 83.5501 7.957 83.9821 8.149 84.3661C8.349 84.7421 8.629 85.0421 8.989 85.2661C9.357 85.4821 9.789 85.5901 10.285 85.5901C10.669 85.5901 11.013 85.5101 11.317 85.3501C11.621 85.1901 11.865 84.9861 12.049 84.7381C12.137 84.6661 12.221 84.6301 12.301 84.6301C12.381 84.6301 12.453 84.6621 12.517 84.7261C12.581 84.7901 12.613 84.8621 12.613 84.9421C12.613 85.0301 12.573 85.1141 12.493 85.1941C12.237 85.5061 11.913 85.7621 11.521 85.9621C11.137 86.1621 10.729 86.2621 10.297 86.2621C9.681 86.2621 9.137 86.1301 8.665 85.8661C8.193 85.6021 7.825 85.2341 7.561 84.7621C7.297 84.2821 7.165 83.7301 7.165 83.1061C7.165 82.4501 7.293 81.8781 7.549 81.3901C7.813 80.8941 8.161 80.5181 8.593 80.2621C9.025 79.9981 9.485 79.8661 9.973 79.8661C10.453 79.8661 10.901 79.9781 11.317 80.2021C11.741 80.4261 12.085 80.7541 12.349 81.1861C12.613 81.6181 12.749 82.1301 12.757 82.7221ZM9.973 80.5621C9.509 80.5621 9.077 80.7221 8.677 81.0421C8.285 81.3621 8.033 81.8221 7.921 82.4221H12.013V82.3261C11.973 81.9661 11.853 81.6541 11.653 81.3901C11.453 81.1181 11.201 80.9141 10.897 80.7781C10.601 80.6341 10.293 80.5621 9.973 80.5621ZM17.109 79.8661C17.269 79.8661 17.413 79.8981 17.541 79.9621C17.669 80.0261 17.733 80.1221 17.733 80.2501C17.733 80.3621 17.701 80.4541 17.637 80.5261C17.573 80.5901 17.497 80.6221 17.409 80.6221C17.369 80.6221 17.289 80.6021 17.169 80.5621C17.057 80.5221 16.949 80.5021 16.845 80.5021C16.549 80.5021 16.253 80.6181 15.957 80.8501C15.669 81.0741 15.429 81.3661 15.237 81.7261C15.053 82.0861 14.961 82.4501 14.961 82.8181V85.7821C14.961 85.8861 14.925 85.9741 14.853 86.0461C14.789 86.1101 14.705 86.1421 14.601 86.1421C14.497 86.1421 14.409 86.1101 14.337 86.0461C14.273 85.9741 14.241 85.8861 14.241 85.7821V80.4061C14.241 80.3021 14.273 80.2181 14.337 80.1541C14.409 80.0821 14.497 80.0461 14.601 80.0461C14.705 80.0461 14.789 80.0821 14.853 80.1541C14.925 80.2181 14.961 80.3021 14.961 80.4061V81.4621C15.145 81.0061 15.421 80.6301 15.789 80.3341C16.165 80.0301 16.605 79.8741 17.109 79.8661ZM24.0878 79.8901C24.1678 79.8901 24.2438 79.9181 24.3158 79.9741C24.3878 80.0301 24.4238 80.1021 24.4238 80.1901C24.4238 80.2621 24.4078 80.3301 24.3758 80.3941L22.0238 85.9141C21.9918 85.9781 21.9438 86.0341 21.8798 86.0821C21.8238 86.1221 21.7638 86.1421 21.6998 86.1421C21.6198 86.1501 21.5478 86.1341 21.4838 86.0941C21.4198 86.0541 21.3718 85.9941 21.3398 85.9141L18.9758 80.3941C18.9758 80.3781 18.9678 80.3541 18.9518 80.3221C18.9438 80.2901 18.9398 80.2581 18.9398 80.2261C18.9398 80.1301 18.9718 80.0501 19.0358 79.9861C19.0998 79.9141 19.1918 79.8781 19.3118 79.8781C19.3838 79.8781 19.4478 79.9021 19.5038 79.9501C19.5678 79.9901 19.6158 80.0461 19.6478 80.1181L21.6878 84.9781L23.7398 80.1181C23.7718 80.0461 23.8158 79.9901 23.8718 79.9501C23.9358 79.9021 24.0078 79.8821 24.0878 79.8901ZM26.5034 85.7821C26.5034 85.8861 26.4674 85.9741 26.3954 86.0461C26.3314 86.1101 26.2474 86.1421 26.1434 86.1421C26.0394 86.1421 25.9514 86.1101 25.8794 86.0461C25.8154 85.9741 25.7834 85.8861 25.7834 85.7821V80.2621C25.7834 80.1581 25.8154 80.0741 25.8794 80.0101C25.9514 79.9381 26.0394 79.9021 26.1434 79.9021C26.2474 79.9021 26.3314 79.9381 26.3954 80.0101C26.4674 80.0741 26.5034 80.1581 26.5034 80.2621V85.7821ZM26.1434 79.0981C25.9834 79.0981 25.8594 79.0621 25.7714 78.9901C25.6834 78.9101 25.6394 78.7981 25.6394 78.6541V78.5341C25.6394 78.3901 25.6834 78.2821 25.7714 78.2101C25.8674 78.1301 25.9954 78.0901 26.1554 78.0901C26.4754 78.0901 26.6354 78.2381 26.6354 78.5341V78.6541C26.6354 78.7981 26.5914 78.9101 26.5034 78.9901C26.4234 79.0621 26.3034 79.0981 26.1434 79.0981ZM31.0258 79.8661C31.4018 79.8661 31.7498 79.9101 32.0698 79.9981C32.3978 80.0781 32.6578 80.1901 32.8498 80.3341C33.0498 80.4781 33.1498 80.6341 33.1498 80.8021C33.1498 80.8901 33.1178 80.9701 33.0538 81.0421C32.9978 81.1141 32.9258 81.1501 32.8378 81.1501C32.7578 81.1501 32.6898 81.1341 32.6338 81.1021C32.5858 81.0701 32.5298 81.0221 32.4658 80.9581C32.3618 80.8541 32.2618 80.7781 32.1658 80.7301C32.0458 80.6741 31.8858 80.6301 31.6858 80.5981C31.4938 80.5581 31.2858 80.5381 31.0618 80.5381C30.6218 80.5381 30.2178 80.6501 29.8498 80.8741C29.4898 81.0981 29.2058 81.4021 28.9978 81.7861C28.7898 82.1701 28.6858 82.5941 28.6858 83.0581C28.6858 83.5381 28.7858 83.9701 28.9858 84.3541C29.1858 84.7381 29.4618 85.0421 29.8138 85.2661C30.1738 85.4821 30.5818 85.5901 31.0378 85.5901C31.3258 85.5901 31.5538 85.5661 31.7218 85.5181C31.8978 85.4701 32.0698 85.4021 32.2378 85.3141C32.2938 85.2821 32.3898 85.2101 32.5258 85.0981C32.5898 85.0421 32.6458 85.0021 32.6938 84.9781C32.7418 84.9461 32.7938 84.9301 32.8498 84.9301C32.9458 84.9301 33.0218 84.9621 33.0778 85.0261C33.1338 85.0821 33.1618 85.1581 33.1618 85.2541C33.1618 85.3901 33.0658 85.5381 32.8738 85.6981C32.6818 85.8501 32.4178 85.9821 32.0818 86.0941C31.7458 86.2061 31.3738 86.2621 30.9658 86.2621C30.3818 86.2621 29.8618 86.1261 29.4058 85.8541C28.9498 85.5741 28.5938 85.1901 28.3378 84.7021C28.0898 84.2141 27.9658 83.6661 27.9658 83.0581C27.9658 82.4741 28.0938 81.9421 28.3498 81.4621C28.6058 80.9741 28.9658 80.5861 29.4298 80.2981C29.8938 80.0101 30.4258 79.8661 31.0258 79.8661ZM39.7218 82.7221C39.7218 82.8181 39.6858 82.9021 39.6138 82.9741C39.5418 83.0381 39.4578 83.0701 39.3618 83.0701H34.8258C34.8258 83.5501 34.9218 83.9821 35.1138 84.3661C35.3138 84.7421 35.5938 85.0421 35.9538 85.2661C36.3218 85.4821 36.7538 85.5901 37.2498 85.5901C37.6338 85.5901 37.9778 85.5101 38.2818 85.3501C38.5858 85.1901 38.8298 84.9861 39.0138 84.7381C39.1018 84.6661 39.1858 84.6301 39.2658 84.6301C39.3458 84.6301 39.4178 84.6621 39.4818 84.7261C39.5458 84.7901 39.5778 84.8621 39.5778 84.9421C39.5778 85.0301 39.5378 85.1141 39.4578 85.1941C39.2018 85.5061 38.8778 85.7621 38.4858 85.9621C38.1018 86.1621 37.6938 86.2621 37.2618 86.2621C36.6458 86.2621 36.1018 86.1301 35.6298 85.8661C35.1578 85.6021 34.7898 85.2341 34.5258 84.7621C34.2618 84.2821 34.1298 83.7301 34.1298 83.1061C34.1298 82.4501 34.2578 81.8781 34.5138 81.3901C34.7778 80.8941 35.1258 80.5181 35.5578 80.2621C35.9898 79.9981 36.4498 79.8661 36.9378 79.8661C37.4178 79.8661 37.8658 79.9781 38.2818 80.2021C38.7058 80.4261 39.0498 80.7541 39.3138 81.1861C39.5778 81.6181 39.7138 82.1301 39.7218 82.7221ZM36.9378 80.5621C36.4738 80.5621 36.0418 80.7221 35.6418 81.0421C35.2498 81.3621 34.9978 81.8221 34.8858 82.4221H38.9778V82.3261C38.9378 81.9661 38.8178 81.6541 38.6178 81.3901C38.4178 81.1181 38.1658 80.9141 37.8618 80.7781C37.5658 80.6341 37.2578 80.5621 36.9378 80.5621ZM40.8578 85.1701C40.7938 85.0661 40.7618 84.9781 40.7618 84.9061C40.7618 84.8021 40.8138 84.7221 40.9178 84.6661C40.9658 84.6181 41.0298 84.5941 41.1098 84.5941C41.2058 84.5941 41.2938 84.6341 41.3738 84.7141C41.8458 85.3381 42.4738 85.6501 43.2578 85.6501C43.6418 85.6501 43.9738 85.5621 44.2538 85.3861C44.5418 85.2021 44.6858 84.9381 44.6858 84.5941C44.6858 84.2581 44.5538 84.0061 44.2898 83.8381C44.0258 83.6701 43.6578 83.5261 43.1858 83.4061C42.5218 83.2381 42.0018 83.0221 41.6258 82.7581C41.2498 82.4861 41.0618 82.0901 41.0618 81.5701C41.0618 81.2421 41.1538 80.9501 41.3378 80.6941C41.5218 80.4301 41.7698 80.2261 42.0818 80.0821C42.4018 79.9381 42.7618 79.8661 43.1618 79.8661C43.5058 79.8661 43.8498 79.9341 44.1938 80.0701C44.5458 80.1981 44.8458 80.4061 45.0938 80.6941C45.1658 80.7501 45.2018 80.8301 45.2018 80.9341C45.2018 81.0301 45.1618 81.1141 45.0818 81.1861C45.0258 81.2341 44.9538 81.2581 44.8658 81.2581C44.7858 81.2581 44.7138 81.2261 44.6498 81.1621C44.4578 80.9461 44.2298 80.7821 43.9658 80.6701C43.7018 80.5581 43.4178 80.5021 43.1138 80.5021C42.7378 80.5021 42.4138 80.5901 42.1418 80.7661C41.8778 80.9421 41.7458 81.2061 41.7458 81.5581C41.7618 81.8781 41.9058 82.1221 42.1778 82.2901C42.4578 82.4581 42.8658 82.6101 43.4018 82.7461C43.8178 82.8501 44.1618 82.9661 44.4338 83.0941C44.7058 83.2221 44.9258 83.4021 45.0938 83.6341C45.2698 83.8661 45.3578 84.1741 45.3578 84.5581C45.3578 85.0781 45.1498 85.4941 44.7338 85.8061C44.3178 86.1101 43.8018 86.2621 43.1858 86.2621C42.2098 86.2621 41.4338 85.8981 40.8578 85.1701Z" fill="#D3C1AC"/>
<path d="M16.9816 120.213L9.7397 126.622C9.3261 126.988 8.65552 126.988 8.24192 126.622L1.00005 120.213" stroke="#E3E1DE"/>
<path d="M16.9816 125.213L9.7397 131.622C9.3261 131.988 8.65552 131.988 8.24192 131.622L1.00005 125.213" stroke="#E3E1DE"/>
</svg>
